<?xml version="1.0" encoding="UTF-8"?>
<svg xmlns="http://www.w3.org/2000/svg" xmlns:xlink="http://www.w3.org/1999/xlink" width="0" height="0">
<symbol id="bank" height="30" viewBox="0 0 24 24" width="30" data-name="Layer 1"><path d="m24 23a1 1 0 0 1 -1 1h-22a1 1 0 0 1 0-2h22a1 1 0 0 1 1 1zm-23.709-14.448a2.443 2.443 0 0 1 .153-2.566 4.716 4.716 0 0 1 1.668-1.5l7.501-3.904a5.174 5.174 0 0 1 4.774 0l7.5 3.907a4.716 4.716 0 0 1 1.668 1.5 2.443 2.443 0 0 1 .153 2.566 2.713 2.713 0 0 1 -2.416 1.445h-.292v8h1a1 1 0 0 1 0 2h-20a1 1 0 0 1 0-2h1v-8h-.292a2.713 2.713 0 0 1 -2.417-1.448zm4.709 9.448h3v-8h-3zm5-8v8h4v-8zm9 0h-3v8h3zm-16.937-2.375a.717.717 0 0 0 .645.375h18.584a.717.717 0 0 0 .645-.375.452.452 0 0 0 -.024-.5 2.7 2.7 0 0 0 -.949-.864l-7.5-3.907a3.176 3.176 0 0 0 -2.926 0l-7.5 3.907a2.712 2.712 0 0 0 -.949.865.452.452 0 0 0 -.026.499z"/></symbol>
<symbol id="ship" data-name="Layer 1" viewBox="0 0 24 24" width="30" height="30"><path d="M23,20a1,1,0,0,0-1,1c0,.344-.682,1-1.75,1a2.023,2.023,0,0,1-1.593-.689,1.932,1.932,0,0,1,.128-.184,12.152,12.152,0,0,0,3.156-6.183A3,3,0,0,0,20,11.584V9a4,4,0,0,0-4-4V4A4,4,0,0,0,8,4V5A4,4,0,0,0,4,9v2.571a3,3,0,0,0-1.972,3.373,12.188,12.188,0,0,0,3.187,6.183,1.973,1.973,0,0,1,.133.189A2.005,2.005,0,0,1,3.75,22C2.661,22,2,21.306,2,21a1,1,0,0,0-2,0c0,1.626,1.718,3,3.75,3a4.212,4.212,0,0,0,2.763-1A4.295,4.295,0,0,0,12,23.016,4.317,4.317,0,0,0,17.5,23a4.208,4.208,0,0,0,2.746,1C22.282,24,24,22.626,24,21A1,1,0,0,0,23,20ZM10,4a2,2,0,0,1,4,0V5H10ZM8,7h8a2,2,0,0,1,2,2v1.92L12.948,9.262a3.026,3.026,0,0,0-1.891,0L6,10.913V9A2,2,0,0,1,8,7ZM9.25,22a1.938,1.938,0,0,1-1.711-.849,5.113,5.113,0,0,0-.848-1.372A10.253,10.253,0,0,1,4,14.607a1.018,1.018,0,0,1,.662-1.153L11,11.383V21C11,21.344,10.318,22,9.25,22Zm5.5,0C13.661,22,13,21.306,13,21V11.384l6.305,2.069a1.021,1.021,0,0,1,.666,1.155,10.2,10.2,0,0,1-2.662,5.171,4.991,4.991,0,0,0-.848,1.378A1.929,1.929,0,0,1,14.75,22Z"/></symbol>
<symbol id="users-alt" data-name="Layer 1" viewBox="0 0 24 24" width="30" height="30"><path d="M12,16a4,4,0,1,1,4-4A4,4,0,0,1,12,16Zm0-6a2,2,0,1,0,2,2A2,2,0,0,0,12,10Zm6,13A6,6,0,0,0,6,23a1,1,0,0,0,2,0,4,4,0,0,1,8,0,1,1,0,0,0,2,0ZM18,8a4,4,0,1,1,4-4A4,4,0,0,1,18,8Zm0-6a2,2,0,1,0,2,2A2,2,0,0,0,18,2Zm6,13a6.006,6.006,0,0,0-6-6,1,1,0,0,0,0,2,4,4,0,0,1,4,4,1,1,0,0,0,2,0ZM6,8a4,4,0,1,1,4-4A4,4,0,0,1,6,8ZM6,2A2,2,0,1,0,8,4,2,2,0,0,0,6,2ZM2,15a4,4,0,0,1,4-4A1,1,0,0,0,6,9a6.006,6.006,0,0,0-6,6,1,1,0,0,0,2,0Z"/></symbol>
<symbol id="shopping-cart" viewBox="0 0 24 24" width="30" height="30"><g data-name="01 align center"><path d="M24,3H4.242L4.2,2.649A3,3,0,0,0,1.222,0H0V2H1.222a1,1,0,0,1,.993.883L3.8,16.351A3,3,0,0,0,6.778,19H20V17H6.778a1,1,0,0,1-.993-.884L5.654,15H21.836ZM20.164,13H5.419L4.478,5H21.607Z"/><circle cx="7" cy="22" r="2"/><circle cx="17" cy="22" r="2"/></g></symbol>
<symbol id="lightbulb" viewBox="0 0 24 24" width="30" height="30" stroke-width="3" stroke="#000000" fill="none"><line x1="50.4" y1="24.38" x2="58.3" y2="23.14"/><line x1="47.93" y1="17.11" x2="52.87" y2="14.2"/><line x1="42.89" y1="11.73" x2="46.21" y2="4.51"/><line x1="33.45" y1="10.69" x2="33.41" y2="4.96"/><line x1="24.29" y1="12.09" x2="21.62" y2="4.51"/><line x1="17.99" y1="17.03" x2="12.96" y2="14.29"/><line x1="15.78" y1="23.97" x2="8.03" y2="22.66"/><path d="M26.22,45.47c0-5.16-3.19-9.49-4.91-12.69A12.24,12.24,0,0,1,19.85,27c0-6.79,6.21-12.3,13-12.3"/><path d="M39.48,45.47c0-5.16,3.19-9.49,4.91-12.69A12.24,12.24,0,0,0,45.85,27c0-6.79-6.21-12.3-13-12.3"/><rect x="23.63" y="45.19" width="18.93" height="4.25" rx="2.12"/><rect x="24.79" y="49.43" width="16.61" height="4.25" rx="2.12"/><path d="M36.32,53.68v.84a3.23,3.23,0,1,1-6.44,0v-.84"/><path d="M24.57,26.25a7.5,7.5,0,0,1,7.88-7.11"/></symbol>
</svg>
